<?xml version="1.0" encoding="utf-8"?>
<!-- Generator: Adobe Illustrator 15.0.0, SVG Export Plug-In . SVG Version: 6.00 Build 0)  -->
<!DOCTYPE svg PUBLIC "-//W3C//DTD SVG 1.1//EN" "http://www.w3.org/Graphics/SVG/1.1/DTD/svg11.dtd">
<svg version="1.1" xmlns="http://www.w3.org/2000/svg" xmlns:xlink="http://www.w3.org/1999/xlink" x="0px" y="0px" width="800px"
	 height="800px" viewBox="0 0 800 800" enable-background="new 0 0 800 800" xml:space="preserve">
<g id="background_1_" enable-background="new    ">
	<g id="background">
		<g>
			<path fill-rule="evenodd" clip-rule="evenodd" fill="#BA0305" d="M642.22,25.231H159.218
				c-73.741,0-133.521,59.778-133.521,133.519V641.73c0,73.74,59.781,133.517,133.521,133.517H642.22
				c73.74,0,133.521-59.776,133.521-133.517V158.75C775.74,85.009,715.96,25.231,642.22,25.231z"/>
		</g>
	</g>
</g>
<g id="hlavia_1_" enable-background="new    ">
	<g id="hlavia">
		<g>
			<path fill-rule="evenodd" clip-rule="evenodd" fill="#FFFFFF" d="M419.372,286.29c-44.968,0-88.171,36.764-96.498,82.117
				c-8.324,45.351,21.377,82.114,66.345,82.114c44.963,0,88.166-36.764,96.494-82.114
				C494.039,323.054,464.338,286.29,419.372,286.29z"/>
		</g>
	</g>
</g>
<g id="telo_1_" enable-background="new    ">
	<g id="telo">
		<g>
			<path fill-rule="evenodd" clip-rule="evenodd" fill="#FFFFFF" d="M231.421,566.677h261.324
				c-0.429-67.321-48.896-119.127-115.495-119.127C310.655,447.55,248.994,499.355,231.421,566.677z"/>
		</g>
	</g>
</g>
<g id="film._pas_1_" enable-background="new    ">
	<g id="film._pas">
		<g>
			<path fill-rule="evenodd" clip-rule="evenodd" fill="#FFFFFF" d="M607.217,166.117l-9.566,41.006
				c-0.826,3.534-4.36,6.399-7.894,6.399H293.96c-3.534,0-5.73-2.865-4.906-6.399l9.566-41.006h-85.768l-106.17,455.1h0.156
				l-1.928,8.264h85.138l8.728-37.421c0.824-3.533,4.358-6.396,7.892-6.396h295.799c3.534,0,5.73,2.863,4.904,6.396l-6.799,29.157
				h0.095l-1.885,8.089h0.108l-0.024,0.112h87.073l1.913-8.201h0.161l106.172-455.1H607.217z M220.505,215.925l5.369-23.012
				c0.824-3.534,4.358-6.399,7.892-6.399h31.35c3.534,0,5.73,2.865,4.906,6.399l-5.37,23.012c-0.824,3.534-4.358,6.399-7.892,6.399
				h-31.35C221.877,222.324,219.681,219.458,220.505,215.925z M202.577,292.772l1.566-6.711c0.026-0.321,0.052-0.643,0.13-0.976
				l3.579-15.344c0.824-3.534,4.358-6.399,7.895-6.399h31.199c1.847,0,3.314,0.796,4.19,2.05c1.004,1.169,1.429,2.834,0.992,4.703
				l-5.289,22.677c-0.824,3.534-4.358,6.399-7.894,6.399h-31.459C203.949,299.171,201.752,296.306,202.577,292.772z
				 M184.388,371.019l5.372-23.023c0.824-3.534,4.358-6.399,7.892-6.399h31.102c3.534,0,5.73,2.865,4.906,6.399l-5.372,23.023
				c-0.824,3.536-4.358,6.401-7.892,6.401h-31.102C185.761,377.42,183.564,374.555,184.388,371.019z M179.241,582.029l-5.357,22.961
				c-0.824,3.538-4.358,6.401-7.892,6.401H134.67c-3.534,0-5.73-2.863-4.906-6.401l5.357-22.961c0.824-3.537,4.358-6.4,7.892-6.4
				h31.321C177.869,575.629,180.065,578.492,179.241,582.029z M197.55,504.604l-5.386,23.082c-0.824,3.539-4.358,6.401-7.892,6.401
				h-31.567c-3.534,0-5.73-2.862-4.906-6.401l5.386-23.082c0.825-3.538,4.358-6.401,7.892-6.401h31.567
				C196.178,498.203,198.375,501.066,197.55,504.604z M202.262,455.926H170.94c-3.536,0-5.732-2.867-4.908-6.4l5.357-22.965
				c0.825-3.534,4.361-6.397,7.895-6.397h31.322c3.534,0,5.73,2.863,4.906,6.397l-5.357,22.965
				C209.33,453.059,205.796,455.926,202.262,455.926z M509.907,555.796H213.636c-3.534,0-5.73-2.863-4.906-6.4l69.564-298.185
				c0.824-3.534,4.358-6.399,7.892-6.399h296.271c3.534,0,5.73,2.865,4.909,6.399l-69.564,298.185
				C516.975,552.933,513.44,555.796,509.907,555.796z M575.225,582.029l-5.386,23.089c-0.827,3.533-4.36,6.396-7.895,6.396h-31.198
				c-3.534,0-5.73-2.862-4.909-6.396l5.386-23.089c0.827-3.537,4.36-6.4,7.895-6.4h31.198
				C573.85,575.629,576.046,578.492,575.225,582.029z M593.531,504.604l-5.386,23.082c-0.826,3.539-4.36,6.401-7.894,6.401h-31.445
				c-3.533,0-5.73-2.862-4.903-6.401l5.386-23.082c0.822-3.538,4.355-6.401,7.89-6.401h31.448
				C592.161,498.203,594.357,501.066,593.531,504.604z M611.738,426.561l-5.329,22.841c-0.827,3.534-4.36,6.402-7.895,6.402H567.07
				c-3.533,0-5.73-2.868-4.903-6.402l5.324-22.841c0.826-3.534,4.36-6.397,7.894-6.397h31.444
				C610.363,420.163,612.56,423.026,611.738,426.561z M630.116,347.783l-5.386,23.087c-0.827,3.534-4.355,6.399-7.895,6.399h-31.444
				c-3.534,0-5.73-2.865-4.904-6.399l5.386-23.087c0.822-3.534,4.355-6.399,7.89-6.399h31.444
				C628.741,341.384,630.941,344.25,630.116,347.783z M648.352,269.621l-5.386,23.085c-0.827,3.536-4.36,6.399-7.895,6.399h-31.444
				c-3.534,0-5.73-2.863-4.904-6.399l5.386-23.085c0.822-3.536,4.356-6.401,7.89-6.401h31.444
				C646.977,263.219,649.179,266.084,648.352,269.621z M660.884,215.894c-0.826,3.534-4.36,6.399-7.894,6.399h-31.444
				c-3.533,0-5.73-2.865-4.904-6.399l5.386-23.087c0.822-3.534,4.355-6.399,7.89-6.399h31.449c3.534,0,5.726,2.865,4.903,6.399
				L660.884,215.894z"/>
		</g>
	</g>
</g>
<g id="_x28_R_x29__1_" enable-background="new    ">
	<g id="_x28_R_x29_">
		<g>
			<path fill-rule="evenodd" clip-rule="evenodd" fill="#FFFFFF" d="M672.516,601.319v-0.35c3.235-1.045,5.787-3.307,5.787-6.784
				c0-2.787-1.19-4.88-2.892-6.095c-1.875-1.394-4.257-2.263-9.532-2.263c-4.597,0-8.174,0.521-10.726,0.869v28.549h6.468v-11.314
				h3.066c3.572,0,5.277,1.394,5.788,4.352c0.85,3.481,1.359,5.918,2.21,6.963h6.813c-0.515-1.045-1.195-2.612-2.045-6.963
				C676.603,604.451,675.241,602.188,672.516,601.319z M664.857,599.23h-3.065v-8.182c0.681-0.176,1.875-0.35,3.575-0.35
				c4.087,0,5.958,1.743,5.958,4.351C671.325,598.013,668.429,599.23,664.857,599.23z M666.218,571.901h-0.17
				c-16.001,0-28.766,12.533-28.766,28.548c0,16.016,12.765,28.724,28.766,28.724s28.597-12.708,28.597-28.724
				C694.645,584.435,682.049,571.901,666.218,571.901z M666.218,623.254c-12.424,0-21.788-10.096-21.788-22.805
				c0-12.533,9.364-22.809,21.449-22.809h0.169c12.255,0,21.448,10.275,21.448,22.984
				C687.496,613.158,678.303,623.429,666.218,623.254z"/>
		</g>
	</g>
</g>
</svg>
